<?xml version="1.0" encoding="UTF-8" standalone="no"?>
<!DOCTYPE svg PUBLIC "-//W3C//DTD SVG 1.1//EN"
 "http://www.w3.org/Graphics/SVG/1.1/DTD/svg11.dtd">
<!-- Generated by graphviz version 12.2.1~dev.20241118.0917 (20241118.0917)
 -->
<!-- Title: G Pages: 1 -->
<svg width="596pt" height="404pt"
 viewBox="0.00 0.00 596.11 404.00" xmlns="http://www.w3.org/2000/svg" xmlns:xlink="http://www.w3.org/1999/xlink">
<g id="graph0" class="graph" transform="scale(1 1) rotate(0) translate(4 400)">
<title>G</title>
<polygon fill="white" stroke="none" points="-4,4 -4,-400 592.11,-400 592.11,4 -4,4"/>
<!-- jqt -->
<g id="node1" class="node">
<title>jqt</title>
<ellipse fill="none" stroke="black" cx="88.11" cy="-306" rx="27" ry="18"/>
<text text-anchor="middle" x="88.11" y="-301.32" font-family="Times,serif" font-size="14.00">jqt</text>
</g>
<!-- rhn -->
<g id="node2" class="node">
<title>rhn</title>
<ellipse fill="none" stroke="black" cx="86.11" cy="-234" rx="28.59" ry="18"/>
<text text-anchor="middle" x="86.11" y="-229.32" font-family="Times,serif" font-size="14.00">rhn</text>
</g>
<!-- jqt&#45;&#45;rhn -->
<g id="edge1" class="edge">
<title>jqt&#45;&#45;rhn</title>
<path fill="none" stroke="black" d="M87.62,-287.7C87.31,-276.85 86.91,-262.92 86.6,-252.1"/>
</g>
<!-- xhk -->
<g id="node3" class="node">
<title>xhk</title>
<ellipse fill="none" stroke="black" cx="29.11" cy="-90" rx="29.11" ry="18"/>
<text text-anchor="middle" x="29.11" y="-85.33" font-family="Times,serif" font-size="14.00">xhk</text>
</g>
<!-- jqt&#45;&#45;xhk -->
<g id="edge2" class="edge">
<title>jqt&#45;&#45;xhk</title>
<path fill="none" stroke="black" d="M73.84,-290.57C64.88,-280.6 53.96,-266.55 48.11,-252 28.28,-202.64 27.38,-138.41 28.26,-108.17"/>
</g>
<!-- nvd -->
<g id="node4" class="node">
<title>nvd</title>
<ellipse fill="none" stroke="black" cx="334.11" cy="-90" rx="29.64" ry="18"/>
<text text-anchor="middle" x="334.11" y="-85.33" font-family="Times,serif" font-size="14.00">nvd</text>
</g>
<!-- jqt&#45;&#45;nvd -->
<g id="edge3" class="edge">
<title>jqt&#45;&#45;nvd</title>
<path fill="none" stroke="black" d="M103.87,-291.29C147.99,-252.91 272.41,-144.68 317.52,-105.44"/>
</g>
<!-- rhn&#45;&#45;xhk -->
<g id="edge12" class="edge">
<title>rhn&#45;&#45;xhk</title>
<path fill="none" stroke="black" d="M79.35,-216.15C68.38,-188.82 46.83,-135.14 35.87,-107.82"/>
</g>
<!-- hfx -->
<g id="node9" class="node">
<title>hfx</title>
<ellipse fill="none" stroke="black" cx="144.11" cy="-18" rx="27.01" ry="18"/>
<text text-anchor="middle" x="144.11" y="-13.32" font-family="Times,serif" font-size="14.00">hfx</text>
</g>
<!-- rhn&#45;&#45;hfx -->
<g id="edge14" class="edge">
<title>rhn&#45;&#45;hfx</title>
<path fill="none" stroke="black" d="M89.29,-215.83C92.74,-197.82 98.62,-168.76 105.11,-144 115.37,-104.86 130.22,-59.72 138.31,-35.84"/>
</g>
<!-- bvb -->
<g id="node13" class="node">
<title>bvb</title>
<ellipse fill="none" stroke="black" cx="144.11" cy="-162" rx="29.64" ry="18"/>
<text text-anchor="middle" x="144.11" y="-157.32" font-family="Times,serif" font-size="14.00">bvb</text>
</g>
<!-- rhn&#45;&#45;bvb -->
<g id="edge13" class="edge">
<title>rhn&#45;&#45;bvb</title>
<path fill="none" stroke="black" d="M98.98,-217.46C108.6,-205.86 121.67,-190.08 131.28,-178.49"/>
</g>
<!-- xhk&#45;&#45;hfx -->
<g id="edge7" class="edge">
<title>xhk&#45;&#45;hfx</title>
<path fill="none" stroke="black" d="M49.41,-76.65C70.69,-63.69 103.88,-43.49 124.79,-30.76"/>
</g>
<!-- lhk -->
<g id="node12" class="node">
<title>lhk</title>
<ellipse fill="none" stroke="black" cx="382.11" cy="-18" rx="27" ry="18"/>
<text text-anchor="middle" x="382.11" y="-13.32" font-family="Times,serif" font-size="14.00">lhk</text>
</g>
<!-- nvd&#45;&#45;lhk -->
<g id="edge25" class="edge">
<title>nvd&#45;&#45;lhk</title>
<path fill="none" stroke="black" d="M345,-73.12C352.86,-61.66 363.42,-46.26 371.26,-34.82"/>
</g>
<!-- rsh -->
<g id="node5" class="node">
<title>rsh</title>
<ellipse fill="none" stroke="black" cx="469.11" cy="-306" rx="27.53" ry="18"/>
<text text-anchor="middle" x="469.11" y="-301.32" font-family="Times,serif" font-size="14.00">rsh</text>
</g>
<!-- frs -->
<g id="node6" class="node">
<title>frs</title>
<ellipse fill="none" stroke="black" cx="432.11" cy="-234" rx="27" ry="18"/>
<text text-anchor="middle" x="432.11" y="-229.32" font-family="Times,serif" font-size="14.00">frs</text>
</g>
<!-- rsh&#45;&#45;frs -->
<g id="edge4" class="edge">
<title>rsh&#45;&#45;frs</title>
<path fill="none" stroke="black" d="M460.53,-288.76C454.55,-277.46 446.61,-262.44 440.65,-251.15"/>
</g>
<!-- pzl -->
<g id="node7" class="node">
<title>pzl</title>
<ellipse fill="none" stroke="black" cx="504.11" cy="-234" rx="27" ry="18"/>
<text text-anchor="middle" x="504.11" y="-229.32" font-family="Times,serif" font-size="14.00">pzl</text>
</g>
<!-- rsh&#45;&#45;pzl -->
<g id="edge5" class="edge">
<title>rsh&#45;&#45;pzl</title>
<path fill="none" stroke="black" d="M477.41,-288.41C482.99,-277.25 490.31,-262.6 495.88,-251.47"/>
</g>
<!-- lsr -->
<g id="node8" class="node">
<title>lsr</title>
<ellipse fill="none" stroke="black" cx="561.11" cy="-162" rx="27" ry="18"/>
<text text-anchor="middle" x="561.11" y="-157.32" font-family="Times,serif" font-size="14.00">lsr</text>
</g>
<!-- rsh&#45;&#45;lsr -->
<g id="edge6" class="edge">
<title>rsh&#45;&#45;lsr</title>
<path fill="none" stroke="black" d="M490.68,-294.27C506.72,-285.18 527.88,-270.65 540.11,-252 554.48,-230.1 559.05,-199.46 560.48,-180.44"/>
</g>
<!-- frs&#45;&#45;lsr -->
<g id="edge33" class="edge">
<title>frs&#45;&#45;lsr</title>
<path fill="none" stroke="black" d="M452.55,-221.91C476.71,-208.8 516.65,-187.12 540.77,-174.04"/>
</g>
<!-- qnr -->
<g id="node11" class="node">
<title>qnr</title>
<ellipse fill="none" stroke="black" cx="373.11" cy="-162" rx="28.59" ry="18"/>
<text text-anchor="middle" x="373.11" y="-157.32" font-family="Times,serif" font-size="14.00">qnr</text>
</g>
<!-- frs&#45;&#45;qnr -->
<g id="edge31" class="edge">
<title>frs&#45;&#45;qnr</title>
<path fill="none" stroke="black" d="M419.31,-217.81C409.41,-206.07 395.78,-189.89 385.89,-178.16"/>
</g>
<!-- frs&#45;&#45;lhk -->
<g id="edge32" class="edge">
<title>frs&#45;&#45;lhk</title>
<path fill="none" stroke="black" d="M428.1,-215.85C418.74,-175.78 395.52,-76.38 386.14,-36.23"/>
</g>
<!-- pzl&#45;&#45;nvd -->
<g id="edge19" class="edge">
<title>pzl&#45;&#45;nvd</title>
<path fill="none" stroke="black" d="M490.27,-218.38C472.66,-200.1 440.92,-168.26 411.11,-144 392.73,-129.04 370.27,-113.91 354.36,-103.66"/>
</g>
<!-- pzl&#45;&#45;lsr -->
<g id="edge17" class="edge">
<title>pzl&#45;&#45;lsr</title>
<path fill="none" stroke="black" d="M516.48,-217.81C526.04,-206.07 539.21,-189.89 548.77,-178.16"/>
</g>
<!-- pzl&#45;&#45;hfx -->
<g id="edge18" class="edge">
<title>pzl&#45;&#45;hfx</title>
<path fill="none" stroke="black" d="M496.21,-216.52C479.08,-182.82 435.03,-106.35 373.11,-72 306.74,-35.18 215.92,-23.89 171.23,-20.46"/>
</g>
<!-- lsr&#45;&#45;lhk -->
<g id="edge26" class="edge">
<title>lsr&#45;&#45;lhk</title>
<path fill="none" stroke="black" d="M544.27,-147.64C510.16,-120.58 433.22,-59.55 399.04,-32.43"/>
</g>
<!-- cmg -->
<g id="node10" class="node">
<title>cmg</title>
<ellipse fill="none" stroke="black" cx="317.11" cy="-234" rx="32.27" ry="18"/>
<text text-anchor="middle" x="317.11" y="-229.32" font-family="Times,serif" font-size="14.00">cmg</text>
</g>
<!-- cmg&#45;&#45;nvd -->
<g id="edge9" class="edge">
<title>cmg&#45;&#45;nvd</title>
<path fill="none" stroke="black" d="M319.2,-215.59C322.48,-188.19 328.8,-135.32 332.06,-108.11"/>
</g>
<!-- cmg&#45;&#45;qnr -->
<g id="edge8" class="edge">
<title>cmg&#45;&#45;qnr</title>
<path fill="none" stroke="black" d="M329.82,-217.12C339.11,-205.5 351.65,-189.83 360.84,-178.34"/>
</g>
<!-- cmg&#45;&#45;lhk -->
<g id="edge10" class="edge">
<title>cmg&#45;&#45;lhk</title>
<path fill="none" stroke="black" d="M308.47,-216.22C293.96,-185.48 268.72,-118.98 295.11,-72 308.36,-48.41 336.85,-34.08 357.63,-26.38"/>
</g>
<!-- cmg&#45;&#45;bvb -->
<g id="edge11" class="edge">
<title>cmg&#45;&#45;bvb</title>
<path fill="none" stroke="black" d="M291.58,-222.67C258.41,-209.25 200.88,-185.97 168.35,-172.81"/>
</g>
<!-- qnr&#45;&#45;nvd -->
<g id="edge20" class="edge">
<title>qnr&#45;&#45;nvd</title>
<path fill="none" stroke="black" d="M364.07,-144.76C357.77,-133.46 349.4,-118.44 343.11,-107.15"/>
</g>
<!-- bvb&#45;&#45;xhk -->
<g id="edge15" class="edge">
<title>bvb&#45;&#45;xhk</title>
<path fill="none" stroke="black" d="M123.55,-148.49C102.62,-135.74 70.36,-116.11 49.49,-103.41"/>
</g>
<!-- bvb&#45;&#45;hfx -->
<g id="edge16" class="edge">
<title>bvb&#45;&#45;hfx</title>
<path fill="none" stroke="black" d="M144.11,-143.59C144.11,-116.19 144.11,-63.32 144.11,-36.11"/>
</g>
<!-- ntq -->
<g id="node14" class="node">
<title>ntq</title>
<ellipse fill="none" stroke="black" cx="117.11" cy="-378" rx="28.06" ry="18"/>
<text text-anchor="middle" x="117.11" y="-373.32" font-family="Times,serif" font-size="14.00">ntq</text>
</g>
<!-- ntq&#45;&#45;jqt -->
<g id="edge21" class="edge">
<title>ntq&#45;&#45;jqt</title>
<path fill="none" stroke="black" d="M110.24,-360.41C105.62,-349.25 99.55,-334.6 94.93,-323.47"/>
</g>
<!-- ntq&#45;&#45;xhk -->
<g id="edge24" class="edge">
<title>ntq&#45;&#45;xhk</title>
<path fill="none" stroke="black" d="M96.52,-365.21C81.98,-355.85 63.2,-341.45 52.11,-324 7.98,-254.52 19.27,-149.17 25.92,-108.17"/>
</g>
<!-- ntq&#45;&#45;hfx -->
<g id="edge22" class="edge">
<title>ntq&#45;&#45;hfx</title>
<path fill="none" stroke="black" d="M132.7,-362.94C157.24,-339.19 202.11,-288.44 202.11,-235 202.11,-235 202.11,-235 202.11,-161 202.11,-112 172.15,-60.08 155.29,-34.75"/>
</g>
<!-- ntq&#45;&#45;bvb -->
<g id="edge23" class="edge">
<title>ntq&#45;&#45;bvb</title>
<path fill="none" stroke="black" d="M119.41,-359.82C120.8,-349.45 122.58,-335.97 124.11,-324 130.81,-271.76 138.39,-209.93 141.99,-180.4"/>
</g>
<!-- rzs -->
<g id="node15" class="node">
<title>rzs</title>
<ellipse fill="none" stroke="black" cx="423.11" cy="-378" rx="27" ry="18"/>
<text text-anchor="middle" x="423.11" y="-373.32" font-family="Times,serif" font-size="14.00">rzs</text>
</g>
<!-- rzs&#45;&#45;rsh -->
<g id="edge30" class="edge">
<title>rzs&#45;&#45;rsh</title>
<path fill="none" stroke="black" d="M433.55,-361.12C441.08,-349.66 451.2,-334.26 458.71,-322.82"/>
</g>
<!-- rzs&#45;&#45;lsr -->
<g id="edge29" class="edge">
<title>rzs&#45;&#45;lsr</title>
<path fill="none" stroke="black" d="M444.65,-366.56C478.41,-348.7 541.95,-308.65 561.11,-252 569.18,-228.14 566.97,-198.58 564.31,-180.26"/>
</g>
<!-- rzs&#45;&#45;cmg -->
<g id="edge28" class="edge">
<title>rzs&#45;&#45;cmg</title>
<path fill="none" stroke="black" d="M405.23,-364.09C392.38,-354.17 375.25,-339.57 363.11,-324 345.36,-301.23 331.29,-270.57 323.59,-251.82"/>
</g>
<!-- rzs&#45;&#45;qnr -->
<g id="edge27" class="edge">
<title>rzs&#45;&#45;qnr</title>
<path fill="none" stroke="black" d="M419.1,-359.85C409.74,-319.78 386.52,-220.38 377.14,-180.23"/>
</g>
</g>
</svg>
